<mxfile host="app.diagrams.net" agent="Mozilla/5.0 (Windows NT 10.0; Win64; x64) AppleWebKit/537.36 (KHTML, like Gecko) Chrome/139.0.0.0 Safari/537.36" version="28.1.1">
  <diagram name="Page-1" id="2YBvvXClWsGukQMizWep">
    <mxGraphModel dx="666" dy="644" grid="1" gridSize="10" guides="1" tooltips="1" connect="1" arrows="1" fold="1" page="1" pageScale="1" pageWidth="850" pageHeight="1100" math="0" shadow="0">
      <root>
        <mxCell id="0" />
        <mxCell id="1" parent="0" />
        <mxCell id="aM9ryv3xv72pqoxQDRHE-1" value="&lt;u&gt;:Voter&lt;/u&gt;" style="shape=umlLifeline;perimeter=lifelinePerimeter;whiteSpace=wrap;html=1;container=0;dropTarget=0;collapsible=0;recursiveResize=0;outlineConnect=0;portConstraint=eastwest;newEdgeStyle={&quot;edgeStyle&quot;:&quot;elbowEdgeStyle&quot;,&quot;elbow&quot;:&quot;vertical&quot;,&quot;curved&quot;:0,&quot;rounded&quot;:0};" parent="1" vertex="1">
          <mxGeometry x="40" y="40" width="100" height="520" as="geometry" />
        </mxCell>
        <mxCell id="aM9ryv3xv72pqoxQDRHE-2" value="" style="html=1;points=[];perimeter=orthogonalPerimeter;outlineConnect=0;targetShapes=umlLifeline;portConstraint=eastwest;newEdgeStyle={&quot;edgeStyle&quot;:&quot;elbowEdgeStyle&quot;,&quot;elbow&quot;:&quot;vertical&quot;,&quot;curved&quot;:0,&quot;rounded&quot;:0};" parent="aM9ryv3xv72pqoxQDRHE-1" vertex="1">
          <mxGeometry x="45" y="70" width="10" height="320" as="geometry" />
        </mxCell>
        <mxCell id="MmmJkYfPH7juQAh5am-s-20" value="" style="shape=umlDestroy;whiteSpace=wrap;html=1;strokeWidth=3;targetShapes=umlLifeline;" parent="aM9ryv3xv72pqoxQDRHE-1" vertex="1">
          <mxGeometry x="35" y="430" width="30" height="30" as="geometry" />
        </mxCell>
        <mxCell id="aM9ryv3xv72pqoxQDRHE-5" value="&lt;u&gt;:System&lt;/u&gt;" style="shape=umlLifeline;perimeter=lifelinePerimeter;whiteSpace=wrap;html=1;container=0;dropTarget=0;collapsible=0;recursiveResize=0;outlineConnect=0;portConstraint=eastwest;newEdgeStyle={&quot;edgeStyle&quot;:&quot;elbowEdgeStyle&quot;,&quot;elbow&quot;:&quot;vertical&quot;,&quot;curved&quot;:0,&quot;rounded&quot;:0};" parent="1" vertex="1">
          <mxGeometry x="220" y="40" width="100" height="520" as="geometry" />
        </mxCell>
        <mxCell id="aM9ryv3xv72pqoxQDRHE-6" value="" style="html=1;points=[];perimeter=orthogonalPerimeter;outlineConnect=0;targetShapes=umlLifeline;portConstraint=eastwest;newEdgeStyle={&quot;edgeStyle&quot;:&quot;elbowEdgeStyle&quot;,&quot;elbow&quot;:&quot;vertical&quot;,&quot;curved&quot;:0,&quot;rounded&quot;:0};" parent="aM9ryv3xv72pqoxQDRHE-5" vertex="1">
          <mxGeometry x="45" y="80" width="10" height="320" as="geometry" />
        </mxCell>
        <mxCell id="aM9ryv3xv72pqoxQDRHE-7" value="Register(email, voterID,&amp;nbsp;&lt;div&gt;DOB, location)&lt;/div&gt;" style="html=1;verticalAlign=bottom;endArrow=block;edgeStyle=elbowEdgeStyle;elbow=vertical;curved=0;rounded=0;" parent="1" source="aM9ryv3xv72pqoxQDRHE-2" target="aM9ryv3xv72pqoxQDRHE-6" edge="1">
          <mxGeometry relative="1" as="geometry">
            <mxPoint x="195" y="130" as="sourcePoint" />
            <Array as="points">
              <mxPoint x="180" y="120" />
            </Array>
          </mxGeometry>
        </mxCell>
        <mxCell id="MmmJkYfPH7juQAh5am-s-1" value="&lt;u&gt;:Blockchain&lt;/u&gt;" style="shape=umlLifeline;perimeter=lifelinePerimeter;whiteSpace=wrap;html=1;container=0;dropTarget=0;collapsible=0;recursiveResize=0;outlineConnect=0;portConstraint=eastwest;newEdgeStyle={&quot;edgeStyle&quot;:&quot;elbowEdgeStyle&quot;,&quot;elbow&quot;:&quot;vertical&quot;,&quot;curved&quot;:0,&quot;rounded&quot;:0};" parent="1" vertex="1">
          <mxGeometry x="400" y="40" width="100" height="520" as="geometry" />
        </mxCell>
        <mxCell id="MmmJkYfPH7juQAh5am-s-2" value="" style="html=1;points=[];perimeter=orthogonalPerimeter;outlineConnect=0;targetShapes=umlLifeline;portConstraint=eastwest;newEdgeStyle={&quot;edgeStyle&quot;:&quot;elbowEdgeStyle&quot;,&quot;elbow&quot;:&quot;vertical&quot;,&quot;curved&quot;:0,&quot;rounded&quot;:0};" parent="MmmJkYfPH7juQAh5am-s-1" vertex="1">
          <mxGeometry x="45" y="320" width="10" height="60" as="geometry" />
        </mxCell>
        <mxCell id="MmmJkYfPH7juQAh5am-s-6" value="RegistrationSuccess()" style="html=1;verticalAlign=bottom;endArrow=open;dashed=1;endSize=8;edgeStyle=elbowEdgeStyle;elbow=vertical;curved=0;rounded=0;" parent="1" edge="1">
          <mxGeometry relative="1" as="geometry">
            <mxPoint x="94" y="150" as="targetPoint" />
            <Array as="points">
              <mxPoint x="189" y="150" />
            </Array>
            <mxPoint x="264" y="150" as="sourcePoint" />
          </mxGeometry>
        </mxCell>
        <mxCell id="MmmJkYfPH7juQAh5am-s-8" value="" style="curved=1;endArrow=classic;html=1;rounded=0;" parent="1" edge="1">
          <mxGeometry width="50" height="50" relative="1" as="geometry">
            <mxPoint x="275" y="122" as="sourcePoint" />
            <mxPoint x="280" y="139" as="targetPoint" />
            <Array as="points">
              <mxPoint x="301" y="122" />
            </Array>
          </mxGeometry>
        </mxCell>
        <mxCell id="MmmJkYfPH7juQAh5am-s-9" value="[Check if VoterId&amp;nbsp;&lt;div&gt;is&amp;nbsp;&lt;span style=&quot;background-color: transparent; color: light-dark(rgb(0, 0, 0), rgb(255, 255, 255));&quot;&gt;listed in voter list]&lt;/span&gt;&lt;/div&gt;" style="text;html=1;align=center;verticalAlign=middle;resizable=0;points=[];autosize=1;strokeColor=none;fillColor=none;" parent="1" vertex="1">
          <mxGeometry x="281" y="111" width="130" height="40" as="geometry" />
        </mxCell>
        <mxCell id="MmmJkYfPH7juQAh5am-s-10" value="OpenLoginForm()" style="html=1;verticalAlign=bottom;endArrow=block;edgeStyle=elbowEdgeStyle;elbow=vertical;curved=0;rounded=0;" parent="1" edge="1">
          <mxGeometry relative="1" as="geometry">
            <mxPoint x="96" y="252" as="sourcePoint" />
            <Array as="points">
              <mxPoint x="181" y="252" />
            </Array>
            <mxPoint x="266" y="252" as="targetPoint" />
          </mxGeometry>
        </mxCell>
        <mxCell id="MmmJkYfPH7juQAh5am-s-11" value="FillLoginForm()" style="html=1;verticalAlign=bottom;endArrow=open;dashed=1;endSize=8;edgeStyle=elbowEdgeStyle;elbow=vertical;curved=0;rounded=0;" parent="1" edge="1">
          <mxGeometry relative="1" as="geometry">
            <mxPoint x="95" y="274" as="targetPoint" />
            <Array as="points">
              <mxPoint x="190" y="274" />
            </Array>
            <mxPoint x="265" y="274" as="sourcePoint" />
          </mxGeometry>
        </mxCell>
        <mxCell id="MmmJkYfPH7juQAh5am-s-12" value="Username()" style="html=1;verticalAlign=bottom;endArrow=block;edgeStyle=elbowEdgeStyle;elbow=vertical;curved=0;rounded=0;" parent="1" edge="1">
          <mxGeometry relative="1" as="geometry">
            <mxPoint x="95" y="295" as="sourcePoint" />
            <Array as="points">
              <mxPoint x="180" y="295" />
            </Array>
            <mxPoint x="265" y="295" as="targetPoint" />
          </mxGeometry>
        </mxCell>
        <mxCell id="MmmJkYfPH7juQAh5am-s-13" value="Password()" style="html=1;verticalAlign=bottom;endArrow=block;edgeStyle=elbowEdgeStyle;elbow=vertical;curved=0;rounded=0;" parent="1" edge="1">
          <mxGeometry relative="1" as="geometry">
            <mxPoint x="97" y="315" as="sourcePoint" />
            <Array as="points">
              <mxPoint x="182" y="315" />
            </Array>
            <mxPoint x="267" y="315" as="targetPoint" />
          </mxGeometry>
        </mxCell>
        <mxCell id="MmmJkYfPH7juQAh5am-s-14" value="LoginSuccess()" style="html=1;verticalAlign=bottom;endArrow=open;dashed=1;endSize=8;edgeStyle=elbowEdgeStyle;elbow=vertical;curved=0;rounded=0;" parent="1" edge="1">
          <mxGeometry relative="1" as="geometry">
            <mxPoint x="95" y="336" as="targetPoint" />
            <Array as="points">
              <mxPoint x="190" y="336" />
            </Array>
            <mxPoint x="265" y="336" as="sourcePoint" />
          </mxGeometry>
        </mxCell>
        <mxCell id="MmmJkYfPH7juQAh5am-s-15" value="VotingDashboard()" style="html=1;verticalAlign=bottom;endArrow=open;dashed=1;endSize=8;edgeStyle=elbowEdgeStyle;elbow=vertical;curved=0;rounded=0;" parent="1" edge="1">
          <mxGeometry relative="1" as="geometry">
            <mxPoint x="95" y="358" as="targetPoint" />
            <Array as="points">
              <mxPoint x="190" y="358" />
            </Array>
            <mxPoint x="265" y="358" as="sourcePoint" />
          </mxGeometry>
        </mxCell>
        <mxCell id="MmmJkYfPH7juQAh5am-s-16" value="SelectCandidate&amp;amp;Vote()" style="html=1;verticalAlign=bottom;endArrow=block;edgeStyle=elbowEdgeStyle;elbow=vertical;curved=0;rounded=0;" parent="1" edge="1">
          <mxGeometry relative="1" as="geometry">
            <mxPoint x="95" y="381" as="sourcePoint" />
            <Array as="points">
              <mxPoint x="180" y="381" />
            </Array>
            <mxPoint x="265" y="381" as="targetPoint" />
          </mxGeometry>
        </mxCell>
        <mxCell id="MmmJkYfPH7juQAh5am-s-17" value="StoreEncryptedVote()" style="html=1;verticalAlign=bottom;endArrow=block;edgeStyle=elbowEdgeStyle;elbow=vertical;curved=0;rounded=0;" parent="1" edge="1">
          <mxGeometry relative="1" as="geometry">
            <mxPoint x="275" y="381" as="sourcePoint" />
            <Array as="points">
              <mxPoint x="360" y="381" />
            </Array>
            <mxPoint x="445" y="381" as="targetPoint" />
          </mxGeometry>
        </mxCell>
        <mxCell id="MmmJkYfPH7juQAh5am-s-18" value="EncryptedVoteStored()" style="html=1;verticalAlign=bottom;endArrow=open;dashed=1;endSize=8;edgeStyle=elbowEdgeStyle;elbow=vertical;curved=0;rounded=0;" parent="1" edge="1">
          <mxGeometry relative="1" as="geometry">
            <mxPoint x="275" y="400" as="targetPoint" />
            <Array as="points">
              <mxPoint x="370" y="400" />
            </Array>
            <mxPoint x="445" y="400" as="sourcePoint" />
          </mxGeometry>
        </mxCell>
        <mxCell id="MmmJkYfPH7juQAh5am-s-19" value="VoteSuccess()" style="html=1;verticalAlign=bottom;endArrow=open;dashed=1;endSize=8;edgeStyle=elbowEdgeStyle;elbow=vertical;curved=0;rounded=0;" parent="1" edge="1">
          <mxGeometry relative="1" as="geometry">
            <mxPoint x="93" y="420" as="targetPoint" />
            <Array as="points">
              <mxPoint x="188" y="420" />
            </Array>
            <mxPoint x="263" y="420" as="sourcePoint" />
          </mxGeometry>
        </mxCell>
      </root>
    </mxGraphModel>
  </diagram>
</mxfile>
